<svg width="190.4" height="50" viewBox="0 0 190.4 50" xmlns="http://www.w3.org/2000/svg" fill="none"><g clip-path="url(#a)"><path fill="#4b5eaa" fill-rule="evenodd" d="M32.683 25.124H1.573l-.05 15.266a3.9 3.9 0 0 0 1.658 2.857c4.298 2.163 11.97 6.004 12.98 6.491.17.082.563.244 1.01.261.51.02.906-.125 1.199-.26 1.21-.562 8.679-4.405 12.703-6.492a3.26 3.26 0 0 0 1.105-1.299c.229-.49.324-1.025.276-1.558zM14.67 1.866C13.322.63 11.507-.037 9.636.002c-.082 1.806.626 3.569 1.961 4.86 1.366 1.318 3.259 2.023 5.203 1.943.043-1.855-.725-3.649-2.132-4.941zM33.475 15.976c-.507-1.01-1.383-1.784-2.5-2.317-2.35-1.122-8.51-3.953-13.233-5.915v5.367l-.915.548V7.744L3.107 13.66C1.888 14.162.94 14.934.425 15.976.011 16.822 0 17.718 0 18.11v6.099h33.963V18.11c0-.515-.072-1.3-.488-2.134m-29.23 5.347a.98.98 0 0 1-.659.264.98.98 0 0 1-.731-.302 1.05 1.05 0 0 1-.294-.717v-1.055h1.025a1 1 0 0 1 .695.302c.194.199.298.473.294.753a1.04 1.04 0 0 1-.33.753zm0-2.582a1 1 0 0 1-.659.26 1 1 0 0 1-.731-.297 1.03 1.03 0 0 1-.294-.708v-1.042h1.025c.261.004.512.11.695.298.194.196.298.466.294.744-.005.283-.121.555-.33.745m2.742 2.582a.98.98 0 0 1-.658.264.98.98 0 0 1-.731-.302 1.05 1.05 0 0 1-.294-.717v-1.055h1.025a1 1 0 0 1 .695.302c.194.199.298.473.293.753a1.04 1.04 0 0 1-.33.753zm0-2.582a1 1 0 0 1-.658.26 1 1 0 0 1-.731-.297 1.03 1.03 0 0 1-.294-.708v-1.042h1.025c.261.004.511.11.695.298.194.196.298.466.293.744-.004.283-.12.555-.33.745m2.745 2.582a.98.98 0 0 1-.658.264.98.98 0 0 1-.732-.302 1.05 1.05 0 0 1-.293-.717v-1.055h1.025a1 1 0 0 1 .695.302c.194.199.297.473.293.753a1.04 1.04 0 0 1-.33.753zm0-2.582a1 1 0 0 1-.658.26 1 1 0 0 1-.732-.297 1.03 1.03 0 0 1-.293-.708v-1.042h1.025c.26.004.511.11.695.298.194.196.297.466.293.744-.004.283-.12.555-.33.745m0-2.6a.98.98 0 0 1-.658.263.98.98 0 0 1-.732-.302 1.05 1.05 0 0 1-.293-.717V14.33h1.025a1 1 0 0 1 .695.302c.194.199.297.473.293.753a1.04 1.04 0 0 1-.33.753zm2.743 5.16a1 1 0 0 1-.659.262 1 1 0 0 1-.731-.298 1.03 1.03 0 0 1-.294-.707v-1.043h1.025c.262.005.512.11.695.298.195.196.298.466.294.745-.005.282-.121.554-.33.744m0-2.56a1 1 0 0 1-.659.26 1 1 0 0 1-.731-.297 1.03 1.03 0 0 1-.294-.708v-1.042h1.025c.262.004.512.11.695.298.195.196.298.466.294.744-.005.283-.121.555-.33.745m0-2.6a.98.98 0 0 1-.659.263.98.98 0 0 1-.731-.302 1.05 1.05 0 0 1-.294-.717V14.33h1.025a1 1 0 0 1 .695.302c.195.199.298.473.294.753a1.04 1.04 0 0 1-.33.753zm2.745 5.16a1 1 0 0 1-.659.262 1 1 0 0 1-.731-.298 1.03 1.03 0 0 1-.294-.707v-1.043h1.025c.261.005.512.11.695.298.194.196.298.466.294.745-.005.282-.121.554-.33.744m0-2.56a1 1 0 0 1-.659.26 1 1 0 0 1-.731-.297 1.03 1.03 0 0 1-.294-.708v-1.042h1.025c.261.004.512.11.695.298.194.196.298.466.294.744-.005.283-.121.555-.33.745m0-2.6a.98.98 0 0 1-.659.263.98.98 0 0 1-.731-.302 1.05 1.05 0 0 1-.294-.717V14.33h1.025a1 1 0 0 1 .695.302c.194.199.298.473.294.753a1.04 1.04 0 0 1-.33.753zm0-2.622a.98.98 0 0 1-.659.263.98.98 0 0 1-.731-.302 1.05 1.05 0 0 1-.294-.717v-1.055h1.025a1 1 0 0 1 .695.302c.194.199.298.473.294.753a1.04 1.04 0 0 1-.33.753zm2.742 7.804a.98.98 0 0 1-.658.264.98.98 0 0 1-.732-.302 1.05 1.05 0 0 1-.293-.717v-1.055h1.025a1 1 0 0 1 .695.302c.194.199.298.473.293.753a1.04 1.04 0 0 1-.33.753zm0-2.582a1 1 0 0 1-.658.26 1 1 0 0 1-.732-.297 1.03 1.03 0 0 1-.293-.708v-1.042h1.025c.261.004.511.11.695.298.194.196.298.466.293.744-.004.283-.12.555-.33.745m0-2.6a.98.98 0 0 1-.658.263.98.98 0 0 1-.732-.302 1.05 1.05 0 0 1-.293-.717V14.33h1.025a1 1 0 0 1 .695.302c.194.199.298.473.293.753a1.04 1.04 0 0 1-.33.753zm2.745 5.16a1 1 0 0 1-.658.262 1 1 0 0 1-.732-.298 1.03 1.03 0 0 1-.293-.707v-1.043h1.025c.26.005.511.11.695.298.194.196.297.466.293.745-.004.282-.12.554-.33.744m0-2.56a1 1 0 0 1-.658.26 1 1 0 0 1-.732-.297 1.03 1.03 0 0 1-.293-.708v-1.042h1.025c.26.004.511.11.695.298.194.196.297.466.293.744-.004.283-.12.555-.33.745m0-2.6a.98.98 0 0 1-.658.263.98.98 0 0 1-.732-.302 1.05 1.05 0 0 1-.293-.717V14.33h1.025a1 1 0 0 1 .695.302c.194.199.297.473.293.753a1.04 1.04 0 0 1-.33.753zm0-2.644a1 1 0 0 1-.658.261 1 1 0 0 1-.732-.298 1.03 1.03 0 0 1-.293-.708V11.71h1.025c.26.004.511.11.695.298.194.196.297.466.293.745-.004.282-.12.554-.33.744m2.745 7.805a1 1 0 0 1-.658.261 1 1 0 0 1-.732-.298 1.03 1.03 0 0 1-.293-.707v-1.043h1.025c.26.005.511.11.694.298.195.196.298.466.294.745-.004.282-.121.554-.33.744m0-2.561a1 1 0 0 1-.658.26 1 1 0 0 1-.732-.297 1.03 1.03 0 0 1-.293-.708v-1.042h1.025c.26.004.511.11.694.298.195.196.298.466.294.744-.004.283-.121.555-.33.745m0-2.6a.98.98 0 0 1-.658.263.98.98 0 0 1-.732-.302 1.05 1.05 0 0 1-.293-.717V14.33h1.025a1 1 0 0 1 .694.302c.195.199.298.473.294.753a1.04 1.04 0 0 1-.33.753zm2.742 5.16a1 1 0 0 1-.658.262 1 1 0 0 1-.731-.298 1.03 1.03 0 0 1-.294-.707v-1.043h1.025c.261.005.512.11.695.298.194.196.298.466.293.745-.004.282-.12.554-.33.744m0-2.56a1 1 0 0 1-.658.26 1 1 0 0 1-.731-.297 1.03 1.03 0 0 1-.294-.708v-1.042h1.025c.261.004.512.11.695.298.194.196.298.466.293.744-.004.283-.12.555-.33.745m0-2.6a.98.98 0 0 1-.658.263.98.98 0 0 1-.731-.302 1.05 1.05 0 0 1-.294-.717V14.33h1.025a1 1 0 0 1 .695.302c.194.199.298.473.293.753a1.04 1.04 0 0 1-.33.753zm2.745 5.183a.98.98 0 0 1-.658.263.98.98 0 0 1-.732-.302 1.05 1.05 0 0 1-.293-.717v-1.055h1.025a1 1 0 0 1 .695.302c.194.199.298.473.293.753a1.04 1.04 0 0 1-.33.753zm0-2.583a1 1 0 0 1-.658.26 1 1 0 0 1-.732-.297 1.03 1.03 0 0 1-.293-.708v-1.042h1.025c.261.004.512.11.695.298.194.196.298.466.293.744-.004.283-.12.555-.33.745m2.743 2.56a1 1 0 0 1-.658.262 1 1 0 0 1-.732-.298 1.03 1.03 0 0 1-.293-.707v-1.043h1.025c.26.005.511.11.694.298.195.196.298.466.294.745-.004.282-.12.554-.33.744m0-2.539a.98.98 0 0 1-.658.263.98.98 0 0 1-.732-.302 1.05 1.05 0 0 1-.293-.716v-1.055h1.025a1 1 0 0 1 .694.302c.195.198.298.472.294.753a1.04 1.04 0 0 1-.33.753z" clip-rule="evenodd"/><g opacity=".9"><path fill="#4b5eaa" fill-rule="evenodd" d="M15.256 14.632a1 1 0 0 0-.695-.302h-1.025v1.055c.005.27.108.527.294.717a1 1 0 0 0 .731.302 1 1 0 0 0 .658-.264c.208-.192.324-.466.33-.753.007-.282-.099-.554-.293-.753z" clip-rule="evenodd"/><path stroke="#4b5eaa" stroke-miterlimit="100" stroke-width="1.064" d="M15.256 14.632a1 1 0 0 0-.695-.302h-1.025v1.055c.005.27.108.527.294.717a1 1 0 0 0 .731.302 1 1 0 0 0 .658-.264c.208-.192.324-.466.33-.753.007-.282-.099-.554-.293-.753z"/></g><g opacity=".9"><path fill="#4b5eaa" fill-rule="evenodd" d="M15.256 19.81a1 1 0 0 0-.695-.297h-1.025v1.042c.005.266.108.52.294.708a1 1 0 0 0 .731.298 1 1 0 0 0 .658-.261c.208-.19.324-.462.33-.745.007-.278-.099-.548-.293-.744" clip-rule="evenodd"/><path stroke="#4b5eaa" stroke-miterlimit="100" stroke-width="1.064" d="M15.256 19.81a1 1 0 0 0-.695-.297h-1.025v1.042c.005.266.108.52.294.708a1 1 0 0 0 .731.298 1 1 0 0 0 .658-.261c.208-.19.324-.462.33-.745.007-.278-.099-.548-.293-.744Z"/></g><g opacity=".9"><path fill="#4b5eaa" fill-rule="evenodd" d="M15.256 17.252a1 1 0 0 0-.695-.298h-1.025v1.042c.005.265.108.52.294.708a1 1 0 0 0 .731.298 1 1 0 0 0 .658-.261c.208-.19.324-.462.33-.745.007-.278-.099-.548-.293-.744" clip-rule="evenodd"/><path stroke="#4b5eaa" stroke-miterlimit="100" stroke-width="1.064" d="M15.256 17.252a1 1 0 0 0-.695-.298h-1.025v1.042c.005.265.108.52.294.708a1 1 0 0 0 .731.298 1 1 0 0 0 .658-.261c.208-.19.324-.462.33-.745.007-.278-.099-.548-.293-.744Z"/></g><g opacity=".9"><path fill="#4b5eaa" fill-rule="evenodd" d="M17.999 19.815a1 1 0 0 0-.695-.302h-1.025v1.055c.004.27.108.527.293.717a1 1 0 0 0 .732.302 1 1 0 0 0 .658-.264c.207-.192.324-.466.33-.753.007-.282-.099-.554-.293-.753z" clip-rule="evenodd"/><path stroke="#4b5eaa" stroke-miterlimit="100" stroke-width="1.064" d="M17.999 19.815a1 1 0 0 0-.695-.302h-1.025v1.055c.004.27.108.527.293.717a1 1 0 0 0 .732.302 1 1 0 0 0 .658-.264c.207-.192.324-.466.33-.753.007-.282-.099-.554-.293-.753z"/></g><g opacity=".9"><path fill="#4b5eaa" fill-rule="evenodd" d="M17.999 17.252a1 1 0 0 0-.695-.298h-1.025v1.042c.004.265.108.52.293.708a1 1 0 0 0 .732.298 1 1 0 0 0 .658-.261c.207-.19.324-.462.33-.745.007-.278-.099-.548-.293-.744" clip-rule="evenodd"/><path stroke="#4b5eaa" stroke-miterlimit="100" stroke-width="1.064" d="M17.999 17.252a1 1 0 0 0-.695-.298h-1.025v1.042c.004.265.108.52.293.708a1 1 0 0 0 .732.298 1 1 0 0 0 .658-.261c.207-.19.324-.462.33-.745.007-.278-.099-.548-.293-.744Z"/></g><g opacity=".9"><path fill="#4b5eaa" fill-rule="evenodd" d="M17.999 14.632a1 1 0 0 0-.695-.302h-1.025v1.055c.004.27.108.527.293.717a1 1 0 0 0 .732.302 1 1 0 0 0 .658-.264c.207-.192.324-.466.33-.753.007-.282-.099-.554-.293-.753z" clip-rule="evenodd"/><path stroke="#4b5eaa" stroke-miterlimit="100" stroke-width="1.064" d="M17.999 14.632a1 1 0 0 0-.695-.302h-1.025v1.055c.004.27.108.527.293.717a1 1 0 0 0 .732.302 1 1 0 0 0 .658-.264c.207-.192.324-.466.33-.753.007-.282-.099-.554-.293-.753z"/></g><g opacity=".9"><path fill="#4b5eaa" fill-rule="evenodd" d="M20.744 12.008a1 1 0 0 0-.695-.298h-1.025v1.042c.004.266.108.52.293.708a1 1 0 0 0 .732.298 1 1 0 0 0 .658-.261c.207-.19.324-.462.33-.745.007-.278-.1-.548-.293-.744" clip-rule="evenodd"/><path stroke="#4b5eaa" stroke-miterlimit="100" stroke-width="1.064" d="M20.744 12.008a1 1 0 0 0-.695-.298h-1.025v1.042c.004.266.108.52.293.708a1 1 0 0 0 .732.298 1 1 0 0 0 .658-.261c.207-.19.324-.462.33-.745.007-.278-.1-.548-.293-.744Z"/></g><g opacity=".9"><path fill="#4b5eaa" fill-rule="evenodd" d="M15.256 12.01a1 1 0 0 0-.695-.302h-1.025v1.055c.005.27.108.527.294.717a1 1 0 0 0 .731.302 1 1 0 0 0 .658-.264c.208-.192.324-.466.33-.753.007-.282-.099-.554-.293-.753z" clip-rule="evenodd"/><path stroke="#4b5eaa" stroke-miterlimit="100" stroke-width="1.064" d="M15.256 12.01a1 1 0 0 0-.695-.302h-1.025v1.055c.005.27.108.527.294.717a1 1 0 0 0 .731.302 1 1 0 0 0 .658-.264c.208-.192.324-.466.33-.753.007-.282-.099-.554-.293-.753z"/></g><g opacity=".9"><path fill="#4b5eaa" fill-rule="evenodd" d="M20.744 19.81a1 1 0 0 0-.695-.297h-1.025v1.042c.004.266.108.52.293.708a1 1 0 0 0 .732.298 1 1 0 0 0 .658-.261c.207-.19.324-.462.33-.745.007-.278-.1-.548-.293-.744" clip-rule="evenodd"/><path stroke="#4b5eaa" stroke-miterlimit="100" stroke-width="1.064" d="M20.744 19.81a1 1 0 0 0-.695-.297h-1.025v1.042c.004.266.108.52.293.708a1 1 0 0 0 .732.298 1 1 0 0 0 .658-.261c.207-.19.324-.462.33-.745.007-.278-.1-.548-.293-.744Z"/></g><g opacity=".9"><path fill="#4b5eaa" fill-rule="evenodd" d="M20.744 17.252a1 1 0 0 0-.695-.298h-1.025v1.042c.004.265.108.52.293.708a1 1 0 0 0 .732.298 1 1 0 0 0 .658-.261c.207-.19.324-.462.33-.745.007-.278-.1-.548-.293-.744" clip-rule="evenodd"/><path stroke="#4b5eaa" stroke-miterlimit="100" stroke-width="1.064" d="M20.744 17.252a1 1 0 0 0-.695-.298h-1.025v1.042c.004.265.108.52.293.708a1 1 0 0 0 .732.298 1 1 0 0 0 .658-.261c.207-.19.324-.462.33-.745.007-.278-.1-.548-.293-.744Z"/></g><g opacity=".9"><path fill="#4b5eaa" fill-rule="evenodd" d="M20.744 14.632a1 1 0 0 0-.695-.302h-1.025v1.055c.004.27.108.527.293.717a1 1 0 0 0 .732.302 1 1 0 0 0 .658-.264c.207-.192.324-.466.33-.753.007-.282-.1-.554-.293-.753z" clip-rule="evenodd"/><path stroke="#4b5eaa" stroke-miterlimit="100" stroke-width="1.064" d="M20.744 14.632a1 1 0 0 0-.695-.302h-1.025v1.055c.004.27.108.527.293.717a1 1 0 0 0 .732.302 1 1 0 0 0 .658-.264c.207-.192.324-.466.33-.753.007-.282-.1-.554-.293-.753z"/></g><g opacity=".75"><path fill="#4b5eaa" fill-rule="evenodd" d="M12.511 14.632a1 1 0 0 0-.694-.302H10.79v1.055c.005.27.108.527.294.717a1 1 0 0 0 .731.302 1 1 0 0 0 .659-.264c.207-.192.323-.466.33-.753.006-.282-.1-.554-.294-.753z" clip-rule="evenodd"/><path stroke="#4b5eaa" stroke-miterlimit="100" stroke-width="1.064" d="M12.511 14.632a1 1 0 0 0-.694-.302H10.79v1.055c.005.27.108.527.294.717a1 1 0 0 0 .731.302 1 1 0 0 0 .659-.264c.207-.192.323-.466.33-.753.006-.282-.1-.554-.294-.753z"/></g><g opacity=".75"><path fill="#4b5eaa" fill-rule="evenodd" d="M12.511 19.81a1 1 0 0 0-.694-.297H10.79v1.042c.005.266.108.52.294.708a1 1 0 0 0 .731.298 1 1 0 0 0 .659-.261c.207-.19.323-.462.33-.745.006-.278-.1-.548-.294-.744" clip-rule="evenodd"/><path stroke="#4b5eaa" stroke-miterlimit="100" stroke-width="1.064" d="M12.511 19.81a1 1 0 0 0-.694-.297H10.79v1.042c.005.266.108.52.294.708a1 1 0 0 0 .731.298 1 1 0 0 0 .659-.261c.207-.19.323-.462.33-.745.006-.278-.1-.548-.294-.744Z"/></g><g opacity=".75"><path fill="#4b5eaa" fill-rule="evenodd" d="M12.511 17.252a1 1 0 0 0-.694-.298H10.79v1.042c.005.265.108.52.294.708a1 1 0 0 0 .731.298 1 1 0 0 0 .659-.261c.207-.19.323-.462.33-.745.006-.278-.1-.548-.294-.744" clip-rule="evenodd"/><path stroke="#4b5eaa" stroke-miterlimit="100" stroke-width="1.064" d="M12.511 17.252a1 1 0 0 0-.694-.298H10.79v1.042c.005.265.108.52.294.708a1 1 0 0 0 .731.298 1 1 0 0 0 .659-.261c.207-.19.323-.462.33-.745.006-.278-.1-.548-.294-.744Z"/></g><g opacity=".75"><path fill="#4b5eaa" fill-rule="evenodd" d="M23.486 19.81a1 1 0 0 0-.695-.297h-1.024v1.042c.004.266.107.52.293.708a1 1 0 0 0 .732.298 1 1 0 0 0 .658-.261c.207-.19.323-.462.33-.745.006-.278-.1-.548-.294-.744" clip-rule="evenodd"/><path stroke="#4b5eaa" stroke-miterlimit="100" stroke-width="1.064" d="M23.486 19.81a1 1 0 0 0-.695-.297h-1.024v1.042c.004.266.107.52.293.708a1 1 0 0 0 .732.298 1 1 0 0 0 .658-.261c.207-.19.323-.462.33-.745.006-.278-.1-.548-.294-.744Z"/></g><g opacity=".75"><path fill="#4b5eaa" fill-rule="evenodd" d="M23.486 17.252a1 1 0 0 0-.695-.298h-1.024v1.042c.004.265.107.52.293.708a1 1 0 0 0 .732.298 1 1 0 0 0 .658-.261c.207-.19.323-.462.33-.745.006-.278-.1-.548-.294-.744" clip-rule="evenodd"/><path stroke="#4b5eaa" stroke-miterlimit="100" stroke-width="1.064" d="M23.486 17.252a1 1 0 0 0-.695-.298h-1.024v1.042c.004.265.107.52.293.708a1 1 0 0 0 .732.298 1 1 0 0 0 .658-.261c.207-.19.323-.462.33-.745.006-.278-.1-.548-.294-.744Z"/></g><g opacity=".75"><path fill="#4b5eaa" fill-rule="evenodd" d="M23.486 14.632a1 1 0 0 0-.695-.302h-1.024v1.055c.004.27.107.527.293.717a1 1 0 0 0 .732.302 1 1 0 0 0 .658-.264c.207-.192.323-.466.33-.753.006-.282-.1-.554-.294-.753z" clip-rule="evenodd"/><path stroke="#4b5eaa" stroke-miterlimit="100" stroke-width="1.064" d="M23.486 14.632a1 1 0 0 0-.695-.302h-1.024v1.055c.004.27.107.527.293.717a1 1 0 0 0 .732.302 1 1 0 0 0 .658-.264c.207-.192.323-.466.33-.753.006-.282-.1-.554-.294-.753z"/></g><g opacity=".6"><path fill="#4b5eaa" fill-rule="evenodd" d="M9.769 17.252a1 1 0 0 0-.695-.298H8.049v1.042c.004.265.108.52.293.708a1 1 0 0 0 .732.298 1 1 0 0 0 .658-.261c.207-.19.324-.462.33-.745.007-.278-.1-.548-.293-.744" clip-rule="evenodd"/><path stroke="#4b5eaa" stroke-miterlimit="100" stroke-width="1.064" d="M9.769 17.252a1 1 0 0 0-.695-.298H8.049v1.042c.004.265.108.52.293.708a1 1 0 0 0 .732.298 1 1 0 0 0 .658-.261c.207-.19.324-.462.33-.745.007-.278-.1-.548-.293-.744Z"/></g><g opacity=".6"><path fill="#4b5eaa" fill-rule="evenodd" d="M9.769 19.815a1 1 0 0 0-.695-.302H8.049v1.055c.004.27.108.527.293.717a1 1 0 0 0 .732.302 1 1 0 0 0 .658-.264c.207-.192.324-.466.33-.753.007-.282-.1-.554-.293-.753z" clip-rule="evenodd"/><path stroke="#4b5eaa" stroke-miterlimit="100" stroke-width="1.064" d="M9.769 19.815a1 1 0 0 0-.695-.302H8.049v1.055c.004.27.108.527.293.717a1 1 0 0 0 .732.302 1 1 0 0 0 .658-.264c.207-.192.324-.466.33-.753.007-.282-.1-.554-.293-.753z"/></g><g opacity=".6"><path fill="#4b5eaa" fill-rule="evenodd" d="M9.769 14.632a1 1 0 0 0-.695-.302H8.049v1.055c.004.27.108.527.293.717a1 1 0 0 0 .732.302 1 1 0 0 0 .658-.264c.207-.192.324-.466.33-.753.007-.282-.1-.554-.293-.753z" clip-rule="evenodd"/><path stroke="#4b5eaa" stroke-miterlimit="100" stroke-width="1.064" d="M9.769 14.632a1 1 0 0 0-.695-.302H8.049v1.055c.004.27.108.527.293.717a1 1 0 0 0 .732.302 1 1 0 0 0 .658-.264c.207-.192.324-.466.33-.753.007-.282-.1-.554-.293-.753z"/></g><g opacity=".6"><path fill="#4b5eaa" fill-rule="evenodd" d="M26.231 17.252a1 1 0 0 0-.695-.298h-1.025v1.042c.005.265.108.52.294.708a1 1 0 0 0 .731.298 1 1 0 0 0 .658-.261c.207-.19.324-.462.33-.745.007-.278-.099-.548-.293-.744" clip-rule="evenodd"/><path stroke="#4b5eaa" stroke-miterlimit="100" stroke-width="1.064" d="M26.231 17.252a1 1 0 0 0-.695-.298h-1.025v1.042c.005.265.108.52.294.708a1 1 0 0 0 .731.298 1 1 0 0 0 .658-.261c.207-.19.324-.462.33-.745.007-.278-.099-.548-.293-.744Z"/></g><g opacity=".6"><path fill="#4b5eaa" fill-rule="evenodd" d="M26.231 19.81a1 1 0 0 0-.695-.297h-1.025v1.042c.005.266.108.52.294.708a1 1 0 0 0 .731.298 1 1 0 0 0 .658-.261c.207-.19.324-.462.33-.745.007-.278-.099-.548-.293-.744" clip-rule="evenodd"/><path stroke="#4b5eaa" stroke-miterlimit="100" stroke-width="1.064" d="M26.231 19.81a1 1 0 0 0-.695-.297h-1.025v1.042c.005.266.108.52.294.708a1 1 0 0 0 .731.298 1 1 0 0 0 .658-.261c.207-.19.324-.462.33-.745.007-.278-.099-.548-.293-.744Z"/></g><g opacity=".6"><path fill="#4b5eaa" fill-rule="evenodd" d="M26.231 14.632a1 1 0 0 0-.695-.302h-1.025v1.055c.005.27.108.527.294.717a1 1 0 0 0 .731.302 1 1 0 0 0 .658-.264c.207-.192.324-.466.33-.753.007-.282-.099-.554-.293-.753z" clip-rule="evenodd"/><path stroke="#4b5eaa" stroke-miterlimit="100" stroke-width="1.064" d="M26.231 14.632a1 1 0 0 0-.695-.302h-1.025v1.055c.005.27.108.527.294.717a1 1 0 0 0 .731.302 1 1 0 0 0 .658-.264c.207-.192.324-.466.33-.753.007-.282-.099-.554-.293-.753z"/></g><g opacity=".45"><path fill="#4b5eaa" fill-rule="evenodd" d="M7.024 17.252a1 1 0 0 0-.695-.298H5.304v1.042c.004.265.108.52.294.708a1 1 0 0 0 .731.298 1 1 0 0 0 .658-.261c.207-.19.324-.462.33-.745.007-.278-.099-.548-.293-.744" clip-rule="evenodd"/><path stroke="#4b5eaa" stroke-miterlimit="100" stroke-width="1.064" d="M7.024 17.252a1 1 0 0 0-.695-.298H5.304v1.042c.004.265.108.52.294.708a1 1 0 0 0 .731.298 1 1 0 0 0 .658-.261c.207-.19.324-.462.33-.745.007-.278-.099-.548-.293-.744Z"/></g><g opacity=".45"><path fill="#4b5eaa" fill-rule="evenodd" d="M28.976 19.815a1 1 0 0 0-.695-.302h-1.025v1.055c.004.27.108.527.293.717a1 1 0 0 0 .732.302 1 1 0 0 0 .658-.264c.207-.192.324-.466.33-.753.007-.282-.099-.554-.293-.753z" clip-rule="evenodd"/><path stroke="#4b5eaa" stroke-miterlimit="100" stroke-width="1.064" d="M28.976 19.815a1 1 0 0 0-.695-.302h-1.025v1.055c.004.27.108.527.293.717a1 1 0 0 0 .732.302 1 1 0 0 0 .658-.264c.207-.192.324-.466.33-.753.007-.282-.099-.554-.293-.753z"/></g><g opacity=".45"><path fill="#4b5eaa" fill-rule="evenodd" d="M28.976 17.252a1 1 0 0 0-.695-.298h-1.025v1.042c.004.265.108.52.293.708a1 1 0 0 0 .732.298 1 1 0 0 0 .658-.261c.207-.19.324-.462.33-.745.007-.278-.099-.548-.293-.744" clip-rule="evenodd"/><path stroke="#4b5eaa" stroke-miterlimit="100" stroke-width="1.064" d="M28.976 17.252a1 1 0 0 0-.695-.298h-1.025v1.042c.004.265.108.52.293.708a1 1 0 0 0 .732.298 1 1 0 0 0 .658-.261c.207-.19.324-.462.33-.745.007-.278-.099-.548-.293-.744Z"/></g><g opacity=".45"><path fill="#4b5eaa" fill-rule="evenodd" d="M7.024 19.815a1 1 0 0 0-.695-.302H5.304v1.055c.004.27.108.527.294.717a1 1 0 0 0 .731.302 1 1 0 0 0 .658-.264c.207-.192.324-.466.33-.753.007-.282-.099-.554-.293-.753z" clip-rule="evenodd"/><path stroke="#4b5eaa" stroke-miterlimit="100" stroke-width="1.064" d="M7.024 19.815a1 1 0 0 0-.695-.302H5.304v1.055c.004.27.108.527.294.717a1 1 0 0 0 .731.302 1 1 0 0 0 .658-.264c.207-.192.324-.466.33-.753.007-.282-.099-.554-.293-.753z"/></g><g opacity=".3"><path fill="#4b5eaa" fill-rule="evenodd" d="M31.719 17.254a1 1 0 0 0-.695-.302h-1.025v1.055c.004.27.108.526.293.716a1 1 0 0 0 .732.302 1 1 0 0 0 .658-.263c.207-.192.323-.466.33-.753.006-.283-.1-.555-.294-.753z" clip-rule="evenodd"/><path stroke="#4b5eaa" stroke-miterlimit="100" stroke-width="1.064" d="M31.719 17.254a1 1 0 0 0-.695-.302h-1.025v1.055c.004.27.108.526.293.716a1 1 0 0 0 .732.302 1 1 0 0 0 .658-.263c.207-.192.323-.466.33-.753.006-.283-.1-.555-.294-.753z"/></g><g opacity=".3"><path fill="#4b5eaa" fill-rule="evenodd" d="M4.281 17.252a1 1 0 0 0-.695-.298H2.561v1.042c.005.265.108.52.294.708a1 1 0 0 0 .731.298 1 1 0 0 0 .659-.261c.207-.19.323-.462.33-.745.006-.278-.1-.548-.294-.744" clip-rule="evenodd"/><path stroke="#4b5eaa" stroke-miterlimit="100" stroke-width="1.064" d="M4.281 17.252a1 1 0 0 0-.695-.298H2.561v1.042c.005.265.108.52.294.708a1 1 0 0 0 .731.298 1 1 0 0 0 .659-.261c.207-.19.323-.462.33-.745.006-.278-.1-.548-.294-.744Z"/></g><g opacity=".3"><path fill="#4b5eaa" fill-rule="evenodd" d="M4.281 19.815a1 1 0 0 0-.695-.302H2.561v1.055c.005.27.108.527.294.717a1 1 0 0 0 .731.302 1 1 0 0 0 .659-.264c.207-.192.323-.466.33-.753.006-.282-.1-.554-.294-.753z" clip-rule="evenodd"/><path stroke="#4b5eaa" stroke-miterlimit="100" stroke-width="1.064" d="M4.281 19.815a1 1 0 0 0-.695-.302H2.561v1.055c.005.27.108.527.294.717a1 1 0 0 0 .731.302 1 1 0 0 0 .659-.264c.207-.192.323-.466.33-.753.006-.282-.1-.554-.294-.753z"/></g><g opacity=".3"><path fill="#4b5eaa" fill-rule="evenodd" d="M31.719 19.81a1 1 0 0 0-.695-.297h-1.025v1.042c.004.266.108.52.293.708a1 1 0 0 0 .732.298 1 1 0 0 0 .658-.261c.207-.19.323-.462.33-.745.006-.278-.1-.548-.294-.744" clip-rule="evenodd"/><path stroke="#4b5eaa" stroke-miterlimit="100" stroke-width="1.064" d="M31.719 19.81a1 1 0 0 0-.695-.297h-1.025v1.042c.004.266.108.52.293.708a1 1 0 0 0 .732.298 1 1 0 0 0 .658-.261c.207-.19.323-.462.33-.745.006-.278-.1-.548-.294-.744Z"/></g><path fill="#4b5eaa" fill-rule="evenodd" d="M76.945 48.752a.65.65 0 0 0-.121-.298q-2.679-7.293-5.358-14.588H51.36l6.261-18.232h.241l4.695 13.63a6.967 6.967 0 0 0 2.708 2.928c.584.344 1.15.564 1.566.659q.145.032.29.057c.287.047.566.061.792.063 1.07.005 2.151.005 3.191 0q-4.485-12.224-8.968-24.45h-8.669Q46.125 28.638 38.78 48.754v.599h7.283l3.251-9.506h16.855l3.251 9.506h7.524v-.419a.6.6 0 0 0 0-.18zM98.555 38.47a6 6 0 0 1-.3 1.555c-.313.937-.786 1.665-1.325 2.21-.448.456-1.097.934-2.048 1.317a6.7 6.7 0 0 1-2.407.478h-.662q-.391.026-.782 0a6.4 6.4 0 0 1-2.95-.956c-.86-.538-1.98-1.63-2.77-3.586-.253-.627-.464-1.456-.603-2.391a16.7 16.7 0 0 1-.121-3.707v-.419q.022-.66.121-1.315.124-.829.362-1.615c.443-1.47 1.191-2.74 1.626-3.228a6.5 6.5 0 0 1 2.047-1.555c1.133-.54 2.354-.595 3.01-.658h.603c1.566-.021 3.112.486 4.273 1.555.676.62 1.219 1.44 1.566 2.39a6.3 6.3 0 0 1 .362 1.674h1.685a1.353 1.353 0 0 0 .965-.36l3.07-2.75c.102-.163.164-.347.181-.537a1.2 1.2 0 0 0-.059-.479 10.5 10.5 0 0 0-1.867-3.228c-.86-1.016-2.1-2.056-3.994-2.93a13.6 13.6 0 0 0-2.989-.956 14.7 14.7 0 0 0-3.07-.299h-.781c-2.535-.032-4.998.56-7.152 1.794-1.297.743-2.358 1.619-3.202 2.57-.79.89-1.604 2.127-2.287 3.767-.47 1.125-.906 2.807-1.145 4.663a23 23 0 0 0-.18 2.452v.897a18.3 18.3 0 0 0 .421 4.005c.324 1.478.77 2.729 1.263 3.706a13.6 13.6 0 0 0 2.048 2.99c.982 1.083 2.015 1.902 3.07 2.51.894.517 1.944.957 3.25 1.304q1.053.278 2.348.43c.543.063 1.082.103 1.625.12h1.144a12.94 12.94 0 0 0 5.658-1.195c1.869-.87 3.106-1.906 3.973-2.93.703-.83 1.415-1.983 1.986-3.527.445-1.206.707-2.471.782-3.766zM122.753 18.682c-9.552 0-14.386 6.779-14.386 15.603s4.717 15.603 14.386 15.603 14.386-6.778 14.386-15.603-4.836-15.603-14.386-15.603m0 25.304c-5.07 0-7.547-3.625-7.547-9.7 0-6.077 2.418-9.701 7.547-9.701 5.13 0 7.548 3.681 7.548 9.7 0 6.02-2.418 9.7-7.548 9.7" clip-rule="evenodd"/><path fill="#4b5eaa" d="M148.758 18.682h-6.502v30.669h6.502z"/><path fill="#4b5eaa" fill-rule="evenodd" d="M152.119 18.682c-1.359 0-2.46 1.088-2.46 2.43v1.061c0 1.341 1.101 2.429 2.46 2.429h3.844a4.3 4.3 0 0 0 2.305-1.062 4.26 4.26 0 0 0 1.382-3.036v-1.822h-7.533zM189.871 25.977a11 11 0 0 0-1.085-2.511c-.568-.96-1.186-1.705-1.744-2.21-.622-.564-1.615-1.217-2.889-1.734a11.5 11.5 0 0 0-4.335-.837h-16.073v30.668h6.802v-24.63h7.224v-.005a5.9 5.9 0 0 1 2.588.483c.816.357 1.391.8 1.806 1.254.326.356.825 1.139 1.144 2.093.205.613.326 1.254.362 1.912v18.891h1.926a.97.97 0 0 0 .663-.298l3.732-3.229a1.028 1.028 0 0 0 .362-.717V29.445a11.7 11.7 0 0 0-.481-3.468z" clip-rule="evenodd"/></g><defs><clipPath id="a"><path fill="#fff" d="M0 0h191.966v50.001H0z"/></clipPath></defs></svg>
